<?xml version="1.0" encoding="UTF-8"?>
<svg width="26px" height="24px" viewBox="0 0 26 24" version="1.1" xmlns="http://www.w3.org/2000/svg" xmlns:xlink="http://www.w3.org/1999/xlink">
    <!-- Generator: Sketch 56.3 (81716) - https://sketch.com -->
    <title>icon-teams</title>
    <desc>Created with Sketch.</desc>
    <g id="Icons-+-Logos" stroke="none" stroke-width="1" fill="none" fill-rule="evenodd">
        <g id="NavIcons" transform="translate(-44.000000, -89.000000)" stroke="#FFFFFF" stroke-width="2">
            <g id="icon-teams" transform="translate(45.000000, 89.000000)">
                <path d="M8.2,23 L15.8,23 L15.8,12.0000002 C15.8000002,9.90131808 14.0986822,8.2 12,8.2 C9.90131776,8.2 8.19999975,9.90131808 8.2,12.0000003 L8.2,23 Z" id="Rectangle"></path>
                <path d="M19.2,10.8 C21.8509637,10.8 24,12.4531005 24,14.4923033 L24,22.8 L19.2,22.8" id="Rectangle-Copy-165"></path>
                <path d="M0,10.8 C2.65096368,10.8 4.8,12.4531005 4.8,14.4923033 L4.8,22.8 L0,22.8" id="Rectangle-Copy-165" transform="translate(2.400000, 16.800000) scale(-1, 1) translate(-2.400000, -16.800000) "></path>
                <circle id="Oval" cx="12" cy="3" r="2"></circle>
                <circle id="Oval-Copy" cx="19.2" cy="5.4" r="2"></circle>
                <circle id="Oval-Copy-2" cx="4.2" cy="5.4" r="2"></circle>
            </g>
        </g>
    </g>
</svg>