<svg xmlns="http://www.w3.org/2000/svg" width="56" height="56" fill="none">
  <g fill="#F00">
    <path d="m27 3 .5.289L24.536 5h-1L27 3ZM23.103 5.25h1L21.072 7h-1l3.03-1.75ZM15.742 9.5l3.464-2h1l-3.464 2h-1ZM10.979 12.25l3.464-2h1l-3.464 2h-1ZM5.782 15.25l3.464-2h1l-3.464 2h-1ZM27.5 13.289l3.397 1.961h1l-3.464-2h-.866l-.067.039ZM5.35 18.5v-2h1v2h-1ZM5.35 22v-2h1v2h-1ZM5.35 25.75v-2h1v2h-1ZM5.35 29.75v-2h1v2h-1ZM5.35 34v-2h1v2h-1ZM5.35 38.5v-2h1v2h-1ZM10.113 43.25l-3.465-2h1l3.465 2h-1ZM31.031 41.25h-1L27.5 42.711 28 43l3.031-1.75ZM18.773 48.25l-3.464-2h1l3.464 2h-1ZM27 53l-2.598-1.5h1l2.098 1.211L27 53ZM34.794 38.5h1l3.464-2h-1l-3.464 2ZM39.99 34h1v-2h-1v2ZM39.99 29.75h1v-2h-1v2ZM39.99 25.75h1v-2h-1v2ZM39.99 22h1v-1.5l-.866-.5h-1l.866.5V22ZM36.526 18.5h1l-3.464-2h-1l3.464 2Z"/>
  </g>
  <g fill="#00F">
    <path d="M28.5 3.289 31.464 5h1L29 3l-.5.289ZM31.897 5.25 34.928 7h1l-3.031-1.75h-1ZM39.258 9.5h1l-3.464-2h-1l3.464 2ZM44.021 12.25h1l-3.464-2h-1l3.464 2ZM24.103 15.25h1l3.397-1.961-.067-.039h-.866l-3.464 2ZM49.218 15.25h1l-3.465-2h-1l3.465 2ZM18.474 18.5h1l3.464-2h-1l-3.464 2ZM15.01 22h1v-1.5l.866-.5h-1l-.867.5V22ZM15.01 25.75h1v-2h-1v2ZM15.01 29.75h1v-2h-1v2ZM15.01 34h1v-2h-1v2ZM20.206 38.5h1l-3.465-2h-1l3.465 2ZM44.887 43.25h1l3.465-2h-1l-3.465 2ZM28.5 42.711l-2.531-1.461h-1l3.03 1.75.5-.289ZM36.227 48.25h1l3.464-2h-1l-3.464 2ZM28.5 52.711 29 53l2.598-1.5h-1L28.5 52.711ZM49.65 38.5h1v-2h-1v2ZM49.65 34h1v-2h-1v2ZM49.65 29.75h1v-2h-1v2ZM49.65 25.75h1v-2h-1v2ZM49.65 22h1v-2h-1v2ZM49.65 18.5h1v-2h-1v2Z"/>
  </g>
  <g fill="#1E2D72">
    <path d="M31.897 5.25 34.928 7H21.072l3.03-1.75h7.795ZM16.742 9.5l3.464-2h15.588l3.464 2H16.742ZM15.443 10.25l-3.464 2h32.043l-3.465-2H15.443ZM6.782 15.25l3.464-2h17.321l-3.464 2H6.783ZM6.35 16.5v2h12.124l3.464-2H6.349ZM6.35 22v-2h9.526l-.866.5V22H6.35ZM6.35 23.75v2h8.66v-2H6.35ZM6.35 29.75v-2h8.66v2H6.35ZM6.35 32v2h8.66v-2H6.35ZM6.35 38.5v-2h10.392l3.464 2H6.349ZM7.648 41.25l3.465 2h33.775l3.464-2h-17.32L28 43l-3.031-1.75H7.649ZM19.773 48.25l-3.464-2H39.69l-3.464 2H19.773ZM25.402 51.5 28 53l2.598-1.5h-5.196ZM35.794 38.5h13.857v-2H39.258l-3.464 2ZM49.65 34h-8.66v-2h8.66v2ZM40.99 29.75h8.66v-2h-8.66v2ZM49.65 25.75h-8.66v-2h8.66v2ZM40.99 22h8.66v-2h-9.526l.866.5V22ZM49.65 18.5H37.527l-3.464-2h15.589v2ZM31.897 15.25h17.32l-3.463-2H28.433l3.464 2ZM31.464 5 28 3l-3.464 2h6.928Z"/>
  </g>
</svg>
