<?xml version="1.0" encoding="UTF-8"?>
<svg width="24px" height="24px" viewBox="0 0 24 24" version="1.1" xmlns="http://www.w3.org/2000/svg" xmlns:xlink="http://www.w3.org/1999/xlink">
    <!-- Generator: Sketch 56.3 (81716) - https://sketch.com -->
    <title>icon-info</title>
    <desc>Created with Sketch.</desc>
    <g id="Icons-+-Logos" stroke="none" stroke-width="1" fill="none" fill-rule="evenodd">
        <g id="Sidebar" transform="translate(-22.000000, -202.000000)" fill="#FFFFFF">
            <path d="M33.2,218.8 L33.2,211.6 L30.8,211.6 L30.8,209.2 L35.6,209.2 L35.6,218.8 L38.8,218.8 L38.8,221.2 L29.2,221.2 L29.2,218.8 L33.2,218.8 Z M33.2,206 L35.6,206 L35.6,208.4 L33.2,208.4 L33.2,206 Z M44.4,209.2 L46,209.2 L46,218.8 L44.4,218.8 L44.4,209.2 Z M22,209.2 L23.6,209.2 L23.6,218.8 L22,218.8 L22,209.2 Z M23.6,207.6 L25.2,207.6 L25.2,209.2 L23.6,209.2 L23.6,207.6 Z M26.8,203.6 L29.2,203.6 L29.2,205.2 L26.8,205.2 L26.8,203.6 Z M38.8,203.6 L41.2,203.6 L41.2,205.2 L38.8,205.2 L38.8,203.6 Z M26.8,222.8 L29.2,222.8 L29.2,224.4 L26.8,224.4 L26.8,222.8 Z M38.8,222.8 L41.2,222.8 L41.2,224.4 L38.8,224.4 L38.8,222.8 Z M23.6,218.8 L25.2,218.8 L25.2,220.4 L23.6,220.4 L23.6,218.8 Z M25.2,220.4 L26.8,220.4 L26.8,222.8 L25.2,222.8 L25.2,220.4 Z M25.2,205.2 L26.8,205.2 L26.8,207.6 L25.2,207.6 L25.2,205.2 Z M42.8,207.6 L44.4,207.6 L44.4,209.2 L42.8,209.2 L42.8,207.6 Z M42.8,218.8 L44.4,218.8 L44.4,220.4 L42.8,220.4 L42.8,218.8 Z M41.2,220.4 L42.8,220.4 L42.8,222.8 L41.2,222.8 L41.2,220.4 Z M41.2,205.2 L42.8,205.2 L42.8,207.6 L41.2,207.6 L41.2,205.2 Z M29.2,202 L38.8,202 L38.8,203.6 L29.2,203.6 L29.2,202 Z M29.2,224.4 L38.8,224.4 L38.8,226 L29.2,226 L29.2,224.4 Z" id="icon-info"></path>
        </g>
    </g>
</svg>