<?xml version="1.0" encoding="UTF-8"?>
<svg width="24px" height="24px" viewBox="0 0 24 24" version="1.1" xmlns="http://www.w3.org/2000/svg" xmlns:xlink="http://www.w3.org/1999/xlink">
    <!-- Generator: Sketch 56.3 (81716) - https://sketch.com -->
    <title>icon-world</title>
    <desc>Created with Sketch.</desc>
    <g id="Icons-+-Logos" stroke="none" stroke-width="1" fill="none" fill-rule="evenodd">
        <g id="Sidebar" transform="translate(-21.000000, -109.000000)" fill="#FBFBFB">
            <path d="M36.3442623,116 L36.3442623,114.901639 L35.1639344,114.901639 L35.1639344,114 L32.8032787,114 L32.8032787,114.901639 L31.6229508,114.901639 L31.6229508,115.688525 L30.442623,115.688525 L30.442623,114 L30,114 L30,113.721311 L27.295082,113.721311 L27.295082,113 L27,113 L27,112.540984 L26.1147541,112.540984 L26.1147541,111.360656 L24.5409836,111.360656 L24.5409836,110.180328 L26.9016393,110.180328 L26.9016393,109 L39.0983607,109 L39.0983607,110.180328 L41.4590164,110.180328 L41.4590164,111.360656 L41,111.360656 L41,112 L41.4590164,112 L41.4590164,111.360656 L42.6393443,111.360656 L42.6393443,112 L43,112 L43,112.540984 L43.8196721,112.540984 L43.8196721,115 L45,115 L45,115.295082 L45,127.098361 L43.8196721,127.098361 L43.8196721,129.459016 L42.6393443,129.459016 L42.6393443,126.704918 L43.8196721,126.704918 L43.8196721,118.836066 L43.0327869,118.836066 L43.0327869,120.016393 L42.2459016,120.016393 L42.2459016,121.196721 L41.0655738,121.196721 L41.0655738,120.016393 L40.2786885,120.016393 L40.2786885,119 L38.704918,119 L38.704918,124.737705 L38,124.737705 L38,125 L37.5245902,125 L37.5245902,127.098361 L36.3442623,127.098361 L36.3442623,127 L36,127 L36,127.098361 L36.3442623,127.098361 L36.3442623,128.278689 L36,128.278689 L36,129 L35.1639344,129 L35.1639344,129.459016 L32.8032787,129.459016 L32.8032787,129 L32,129 L32,128.278689 L31.6229508,128.278689 L31.6229508,123 L30,123 L30,122.770492 L28.4754098,122.770492 L28.4754098,122 L28,122 L28,121.590164 L27.6885246,121.590164 L27.6885246,120.409836 L27.295082,120.409836 L27.295082,117.655738 L28,117.655738 L28,117 L28.4754098,117 L28.4754098,116.47541 L36,116.47541 L36,116 L36.3442623,116 Z M22.5737705,125 L22.5737705,125.52459 L22.1803279,125.52459 L22.1803279,126.704918 L23.3606557,126.704918 L23.3606557,129.459016 L22.1803279,129.459016 L22.1803279,127.098361 L21,127.098361 L21,115.295082 L22.1803279,115.295082 L22.1803279,116.47541 L23.7540984,116.47541 L23.7540984,117 L24,117 L24,117.655738 L24.9344262,117.655738 L24.9344262,120.803279 L24,120.803279 L24,121 L23.7540984,121 L23.7540984,124.344262 L23,124.344262 L23,125 L22.5737705,125 Z M41.4590164,120 L41.4590164,120.016393 L41.852459,120.016393 L41.852459,120 L41.4590164,120 Z M27.295082,131.819672 L38.704918,131.819672 L38.704918,130.639344 L41.4590164,130.639344 L41.4590164,131.819672 L39.0983607,131.819672 L39.0983607,133 L26.9016393,133 L26.9016393,131.819672 L24.5409836,131.819672 L24.5409836,130.639344 L27.295082,130.639344 L27.295082,131.819672 Z M22.1803279,112.540984 L23.3606557,112.540984 L23.3606557,115.295082 L22.1803279,115.295082 L22.1803279,112.540984 Z M23.3606557,111.360656 L24.5409836,111.360656 L24.5409836,112.540984 L23.3606557,112.540984 L23.3606557,111.360656 Z M23.3606557,129.459016 L24.5409836,129.459016 L24.5409836,130.639344 L23.3606557,130.639344 L23.3606557,129.459016 Z M41.4590164,129.459016 L42.6393443,129.459016 L42.6393443,130.639344 L41.4590164,130.639344 L41.4590164,129.459016 Z" id="icon-world"></path>
        </g>
    </g>
</svg>