<?xml version="1.0" encoding="UTF-8"?>
<svg width="22px" height="22px" viewBox="0 0 22 22" version="1.1" xmlns="http://www.w3.org/2000/svg" xmlns:xlink="http://www.w3.org/1999/xlink">
    <!-- Generator: Sketch 56.3 (81716) - https://sketch.com -->
    <title>icon-gear</title>
    <desc>Created with Sketch.</desc>
    <g id="Icons-+-Logos" stroke="none" stroke-width="1" fill="none" fill-rule="evenodd">
        <g id="Sidebar" transform="translate(-22.000000, -140.000000)" fill="#FFFFFF" fill-rule="nonzero">
            <path d="M39.875,153.75 L39.875,155.125 L41.25,155.125 L41.25,157.875 L39.875,157.875 L39.875,159.25 L37.125,159.25 L37.125,157.875 L35.75,157.875 L35.75,160.625 L34.375,160.625 L34.375,162 L31.625,162 L31.625,160.625 L30.25,160.625 L30.25,157.875 L28.875,157.875 L28.875,159.25 L26.125,159.25 L26.125,157.875 L24.75,157.875 L24.75,155.125 L26.125,155.125 L26.125,153.75 L23.375,153.75 L23.375,152.375 L22,152.375 L22,149.625 L23.375,149.625 L23.375,148.25 L26.125,148.25 L26.125,146.875 L24.75,146.875 L24.75,144.125 L26.125,144.125 L26.125,142.75 L28.875,142.75 L28.875,144.125 L30.25,144.125 L30.25,141.375 L31.625,141.375 L31.625,140 L34.375,140 L34.375,141.375 L35.75,141.375 L35.75,144.125 L37.125,144.125 L37.125,142.75 L39.875,142.75 L39.875,144.125 L41.25,144.125 L41.25,146.875 L39.875,146.875 L39.875,148.25 L42.625,148.25 L42.625,149.625 L44,149.625 L44,152.375 L42.625,152.375 L42.625,153.75 L39.875,153.75 Z M34.3333333,147 L31.6666667,147 L31.6666667,148.333333 L30.3333333,148.333333 L30.3333333,149.666667 L29,149.666667 L29,152.333333 L30.3333333,152.333333 L30.3333333,153.666667 L31.6666667,153.666667 L31.6666667,155 L34.3333333,155 L34.3333333,153.666667 L35.6666667,153.666667 L35.6666667,152.333333 L37,152.333333 L37,149.666667 L35.6666667,149.666667 L35.6666667,148.333333 L34.3333333,148.333333 L34.3333333,147 Z" id="icon-gear"></path>
        </g>
    </g>
</svg>