<?xml version="1.0" encoding="UTF-8"?>
<svg width="25px" height="25px" viewBox="0 0 25 25" version="1.1" xmlns="http://www.w3.org/2000/svg" xmlns:xlink="http://www.w3.org/1999/xlink">
    <!-- Generator: Sketch 56.3 (81716) - https://sketch.com -->
    <title>gear</title>
    <desc>Created with Sketch.</desc>
    <g id="Icons-+-Logos" stroke="none" stroke-width="1" fill="none" fill-rule="evenodd">
        <g id="NavIcons" transform="translate(-44.000000, -197.000000)" stroke="#FFFFFF" stroke-width="1.5">
            <path d="M49.798289,200.39264 L46.7359943,203.454935 L48.4443618,205.163303 L48.222045,205.639405 C48.002231,206.110149 47.8230074,206.599384 47.6866825,207.102556 L47.5366214,207.656429 L45.1071429,207.656429 L45.1071429,211.642143 L47.6064256,211.642143 L47.7689202,212.172393 C47.9594521,212.794135 48.2160907,213.392259 48.5338284,213.957715 L48.8123615,214.453401 L47.478515,215.787248 L50.5408097,218.849543 L51.9581809,217.432172 L52.4409769,217.671991 C52.8883544,217.894216 53.3536359,218.079344 53.8327229,218.225201 L54.3642857,218.387034 L54.3642857,220.625 L58.35,220.625 L58.35,218.44908 L58.9025606,218.298299 C59.4001701,218.162512 59.8840816,217.984746 60.3498802,217.767241 L60.8259831,217.544924 L62.3245512,219.043492 L65.3868459,215.981197 L64.0501838,214.644535 L64.3474631,214.143479 C64.7149999,213.524006 65.0080666,212.862833 65.2196512,212.172393 L65.3821458,211.642143 L67.6071429,211.642143 L67.6071429,207.656429 L65.4519501,207.656429 L65.3018889,207.102556 C65.169873,206.615288 64.9976233,206.141074 64.7872244,205.684047 L64.5687575,205.209493 L66.3233159,203.454935 L63.2610212,200.39264 L61.6858931,201.967768 L61.1836977,201.666253 C60.4724149,201.239203 59.7057369,200.91087 58.9025606,200.691701 L58.35,200.54092 L58.35,198.125 L54.3642857,198.125 L54.3642857,200.602966 L53.8327229,200.764799 C53.1365688,200.976742 52.4700249,201.27147 51.8458066,201.641823 L51.3447505,201.939102 L49.798289,200.39264 Z M56.4942857,213.125 C54.4894921,213.125 52.8642857,211.499794 52.8642857,209.495 C52.8642857,207.490206 54.4894921,205.865 56.4942857,205.865 C58.4990794,205.865 60.1242857,207.490206 60.1242857,209.495 C60.1242857,211.499794 58.4990794,213.125 56.4942857,213.125 Z" id="gear"></path>
        </g>
    </g>
</svg>