<?xml version="1.0" encoding="UTF-8"?>
<svg width="24px" height="17px" viewBox="0 0 24 17" version="1.1" xmlns="http://www.w3.org/2000/svg" xmlns:xlink="http://www.w3.org/1999/xlink">
    <!-- Generator: Sketch 56.3 (81716) - https://sketch.com -->
    <title>icon-invader</title>
    <desc>Created with Sketch.</desc>
    <g id="Icons-+-Logos" stroke="none" stroke-width="1" fill="none" fill-rule="evenodd">
        <g id="Sidebar" transform="translate(-21.000000, -172.000000)" fill="#FFFFFF" fill-rule="nonzero">
            <path d="M27.5444751,174.126581 L29.7254144,174.126581 L29.7254144,176.251278 L36.2698895,176.251278 L36.2698895,174.126581 L38.4549724,174.126581 L38.4549724,176.251278 L40.6342541,176.251278 L40.6342541,178.376782 L42.8154696,178.376782 L42.8154696,180.500404 L45,180.500404 L45,186.875034 L42.8154696,186.875034 L42.8154696,182.626446 L40.6342541,182.626446 L40.6342541,186.875034 L38.4552486,186.875034 L38.4552486,189 L34.0900552,189 L34.0900552,186.875034 L38.4549724,186.875034 L38.4549724,184.751682 L27.5444751,184.751682 L27.5444751,186.875034 L31.9099448,186.875034 L31.9099448,189 L27.5441989,189 L27.5441989,186.875034 L25.3646409,186.875034 L25.3646409,182.626446 L23.1803867,182.626446 L23.1803867,186.875034 L21,186.875034 L21,180.500404 L23.1801105,180.500404 L23.1801105,178.376782 L25.3643646,178.376782 L25.3643646,176.251278 L27.5441989,176.251278 L27.5441989,174.126581 L25.3646409,174.126581 L25.3646409,172 L27.5444751,172 L27.5444751,174.126581 Z M38.4549724,172 L40.6342541,172 L40.6342541,174.126581 L38.4549724,174.126581 L38.4549724,172 Z M29.7254144,180.500404 L29.7254144,178.376782 L27.5441989,178.376782 L27.5441989,180.500404 L29.7254144,180.500404 Z M38.4549724,180.500404 L38.4549724,178.376782 L36.2698895,178.376782 L36.2698895,180.500404 L38.4549724,180.500404 Z" id="icon-invader"></path>
        </g>
    </g>
</svg>